# xmcd CD database file
# Copyright (C) 1993-1998 Ti Kan
# Generated: Sun Mar 29 08:52:56 1998 by KSCD
# 
# Track frame offsets:
#       150
#       11185
#       23700
#       35405
#       50833
#       64720
#       73758
#       80038
#       91133
#       101648
#       112073
#       122558
#       135038
#
# Disc length: 1936 seconds
#
# Revision: 3
# Processed by: cddbd v1.4b41PL1 Copyright (c) Steve Scherf et al.
# Submitted via: Kscd 0.8.0
#
DISCID=ad078e0d
DTITLE=Eric Clapton - Mr Slow Hand
DYEAR=1900
DGENRE=
TTITLE0=Snake Drive
TTITLE1=Freight Loader
TTITLE2=Got To Hurry
TTITLE3=Train Kept A Rollin'
TTITLE4=Draggin' My Tail
TTITLE5=I Ain't Got You
TTITLE6=Choker
TTITLE7=For Your Love
TTITLE8=West Coast Idea
TTITLE9=A Certain Girl
TTITLE10=I Wish You Would
TTITLE11=Good Morning Little Schoolgirl
TTITLE12=Putty In Your Hands
EXTD=
EXTT0=
EXTT1=
EXTT2=
EXTT3=
EXTT4=
EXTT5=
EXTT6=
EXTT7=
EXTT8=
EXTT9=
EXTT10=
EXTT11=
EXTT12=
PLAYORDER=
